<?xml version="1.0" encoding="utf-8"?>
<!-- Generator: Adobe Illustrator 14.0.0, SVG Export Plug-In . SVG Version: 6.00 Build 43363)  -->
<!DOCTYPE svg PUBLIC "-//W3C//DTD SVG 1.1//EN" "http://www.w3.org/Graphics/SVG/1.1/DTD/svg11.dtd">
<svg version="1.1" id="Layer_1" xmlns="http://www.w3.org/2000/svg" xmlns:xlink="http://www.w3.org/1999/xlink" x="0px" y="0px"
	 width="841.89px" height="595.275px" viewBox="0 0 841.89 595.275" enable-background="new 0 0 841.89 595.275"
	 xml:space="preserve">
<polygon points="440.464,338.325 443.561,338.325 443.561,349.262 445.893,349.262 446.261,349.262 446.437,349.262 446.437,335.45 
	437.589,335.45 437.589,349.262 440.464,349.262 "/>
<polygon points="443.561,363.301 443.561,376.706 440.464,376.706 440.464,363.301 437.589,363.301 437.589,379.581 
	446.437,379.581 446.437,363.301 446.261,363.301 "/>
<path d="M423.098,335.508h-8.479v30.962l-0.015,0.427c-0.17,2.806-2.506,5-5.328,5c-2.945-0.005-5.346-2.405-5.352-5.353v-3.502
	l-8.479,0.008v3.502c0,7.622,6.201,13.823,13.824,13.824h0.001c7.337-0.001,13.4-5.736,13.802-13.058l0.022-0.611l0.003-6.171
	h23.348v-8.509h-23.348V335.508z M443.57,354.902v2.758h-23.348v8.918l-0.021,0.571c-0.319,5.809-5.121,10.351-10.932,10.352
	c-6.037-0.001-10.949-4.913-10.949-10.949v-0.627l0.626-0.008h2.101v0.627c0.008,4.532,3.696,8.22,8.222,8.229
	c4.363-0.001,7.967-3.403,8.206-7.748l0.018-0.516l0-28.125h2.728v16.519H443.57z"/>
</svg>
